<svg xmlns="http://www.w3.org/2000/svg" width="210" height="80" viewBox="0 0 210 80">
  <g id="Group_387" data-name="Group 387" transform="translate(-360 -261)">
    <g id="Group_386" data-name="Group 386">
      <rect id="Rectangle_169" data-name="Rectangle 169" width="210" height="80" rx="8" transform="translate(360 261)" fill="#f5f5f5"/>
    </g>
    <path id="Path_4239" data-name="Path 4239" d="M5.25-8.449A3.034,3.034,0,0,0,2.834-7.43a4.109,4.109,0,0,0-.885,2.79A4.191,4.191,0,0,0,2.8-1.825a3.035,3.035,0,0,0,2.434.993,8.312,8.312,0,0,0,2.215-.349v.946a6.822,6.822,0,0,1-2.38.362A4.027,4.027,0,0,1,1.907-1.117,5.124,5.124,0,0,1,.793-4.653,5.58,5.58,0,0,1,1.33-7.167,3.851,3.851,0,0,1,2.879-8.83a4.688,4.688,0,0,1,2.384-.584,5.751,5.751,0,0,1,2.552.533l-.457.927A4.918,4.918,0,0,0,5.25-8.449ZM15.323-3.485a3.838,3.838,0,0,1-.857,2.656A3.018,3.018,0,0,1,12.1.127a3.136,3.136,0,0,1-1.657-.438A2.891,2.891,0,0,1,9.325-1.568a4.38,4.38,0,0,1-.394-1.917,3.832,3.832,0,0,1,.851-2.65,3.008,3.008,0,0,1,2.361-.949,2.943,2.943,0,0,1,2.32.971A3.821,3.821,0,0,1,15.323-3.485Zm-5.3,0a3.3,3.3,0,0,0,.533,2.031,1.851,1.851,0,0,0,1.568.7,1.863,1.863,0,0,0,1.571-.7,3.285,3.285,0,0,0,.536-2.034A3.232,3.232,0,0,0,13.7-5.5a1.885,1.885,0,0,0-1.584-.689,1.855,1.855,0,0,0-1.562.679A3.269,3.269,0,0,0,10.023-3.485ZM26.038,0V-4.526a1.879,1.879,0,0,0-.355-1.247,1.375,1.375,0,0,0-1.1-.416,1.783,1.783,0,0,0-1.454.565,2.685,2.685,0,0,0-.47,1.739V0H21.6V-4.526a1.879,1.879,0,0,0-.355-1.247,1.383,1.383,0,0,0-1.111-.416,1.721,1.721,0,0,0-1.45.594,3.212,3.212,0,0,0-.46,1.946V0H17.17V-6.957h.857L18.2-6h.051a2.071,2.071,0,0,1,.841-.793,2.57,2.57,0,0,1,1.216-.286A2.067,2.067,0,0,1,22.439-5.9h.051a2.218,2.218,0,0,1,.9-.863,2.8,2.8,0,0,1,1.346-.317,2.356,2.356,0,0,1,1.768.606,2.712,2.712,0,0,1,.587,1.939V0Zm4.278,0H29.263V-6.957h1.054ZM29.174-8.842a.7.7,0,0,1,.178-.53.621.621,0,0,1,.444-.168.621.621,0,0,1,.438.171.687.687,0,0,1,.184.527.7.7,0,0,1-.184.53.615.615,0,0,1-.438.175.609.609,0,0,1-.444-.175A.713.713,0,0,1,29.174-8.842ZM37.312,0V-4.5a1.816,1.816,0,0,0-.387-1.27,1.577,1.577,0,0,0-1.212-.419,2,2,0,0,0-1.6.59A2.98,2.98,0,0,0,33.6-3.65V0H32.551V-6.957h.857L33.579-6h.051a2.152,2.152,0,0,1,.908-.8,2.949,2.949,0,0,1,1.3-.282,2.643,2.643,0,0,1,1.892.606,2.58,2.58,0,0,1,.635,1.939V0Zm8.912-6.957v.667l-1.289.152a2.215,2.215,0,0,1,.317.581,2.216,2.216,0,0,1,.14.809,2.057,2.057,0,0,1-.7,1.631,2.817,2.817,0,0,1-1.917.609,3.192,3.192,0,0,1-.584-.051,1.037,1.037,0,0,0-.673.9.455.455,0,0,0,.235.422,1.716,1.716,0,0,0,.806.136h1.231a2.758,2.758,0,0,1,1.736.476A1.654,1.654,0,0,1,46.135.755a1.975,1.975,0,0,1-.927,1.761,4.96,4.96,0,0,1-2.7.606,3.694,3.694,0,0,1-2.1-.508,1.64,1.64,0,0,1-.74-1.435,1.611,1.611,0,0,1,.406-1.1,2.069,2.069,0,0,1,1.143-.628,1.1,1.1,0,0,1-.448-.375.991.991,0,0,1-.181-.59,1.12,1.12,0,0,1,.2-.667,2.136,2.136,0,0,1,.641-.552,1.879,1.879,0,0,1-.879-.755,2.22,2.22,0,0,1-.34-1.219,2.251,2.251,0,0,1,.686-1.761,2.8,2.8,0,0,1,1.942-.619,3.532,3.532,0,0,1,.984.127ZM40.676,1.168a.944.944,0,0,0,.476.857,2.628,2.628,0,0,0,1.365.292,3.808,3.808,0,0,0,1.965-.4A1.215,1.215,0,0,0,45.119.844.851.851,0,0,0,44.77.06a2.712,2.712,0,0,0-1.314-.219H42.193a1.664,1.664,0,0,0-1.117.343A1.225,1.225,0,0,0,40.676,1.168Zm.571-5.9a1.416,1.416,0,0,0,.413,1.1,1.647,1.647,0,0,0,1.149.375,1.344,1.344,0,0,0,1.542-1.5A1.383,1.383,0,0,0,42.79-6.316a1.546,1.546,0,0,0-1.143.4A1.611,1.611,0,0,0,41.247-4.729ZM55.517-1.9a1.743,1.743,0,0,1-.724,1.5,3.4,3.4,0,0,1-2.031.527A4.417,4.417,0,0,1,50.6-.311v-.978a5.219,5.219,0,0,0,1.076.4,4.493,4.493,0,0,0,1.108.146,2.512,2.512,0,0,0,1.27-.263.871.871,0,0,0,.444-.8.872.872,0,0,0-.352-.7,5.542,5.542,0,0,0-1.374-.682,7.452,7.452,0,0,1-1.381-.632,1.886,1.886,0,0,1-.609-.613,1.6,1.6,0,0,1-.2-.819,1.561,1.561,0,0,1,.692-1.343,3.224,3.224,0,0,1,1.9-.492,5.553,5.553,0,0,1,2.2.457L55-5.77A5.041,5.041,0,0,0,53.1-6.2a2.184,2.184,0,0,0-1.13.235.726.726,0,0,0-.381.647.789.789,0,0,0,.143.476,1.409,1.409,0,0,0,.46.375,10.285,10.285,0,0,0,1.219.514,4.553,4.553,0,0,1,1.673.908A1.6,1.6,0,0,1,55.517-1.9Zm7.719-1.587a3.838,3.838,0,0,1-.857,2.656,3.018,3.018,0,0,1-2.368.955,3.136,3.136,0,0,1-1.657-.438,2.891,2.891,0,0,1-1.117-1.257,4.38,4.38,0,0,1-.394-1.917,3.832,3.832,0,0,1,.851-2.65,3.008,3.008,0,0,1,2.361-.949,2.943,2.943,0,0,1,2.32.971A3.821,3.821,0,0,1,63.235-3.485Zm-5.3,0a3.3,3.3,0,0,0,.533,2.031,1.851,1.851,0,0,0,1.568.7,1.863,1.863,0,0,0,1.571-.7,3.285,3.285,0,0,0,.536-2.034A3.232,3.232,0,0,0,61.607-5.5a1.885,1.885,0,0,0-1.584-.689,1.855,1.855,0,0,0-1.562.679A3.269,3.269,0,0,0,57.935-3.485Zm13.152,0A3.838,3.838,0,0,1,70.23-.828a3.018,3.018,0,0,1-2.368.955,3.136,3.136,0,0,1-1.657-.438,2.891,2.891,0,0,1-1.117-1.257A4.38,4.38,0,0,1,64.7-3.485a3.832,3.832,0,0,1,.851-2.65,3.008,3.008,0,0,1,2.361-.949,2.943,2.943,0,0,1,2.32.971A3.821,3.821,0,0,1,71.087-3.485Zm-5.3,0a3.3,3.3,0,0,0,.533,2.031,1.851,1.851,0,0,0,1.568.7,1.863,1.863,0,0,0,1.571-.7A3.285,3.285,0,0,0,70-3.485,3.232,3.232,0,0,0,69.459-5.5a1.885,1.885,0,0,0-1.584-.689,1.855,1.855,0,0,0-1.562.679A3.269,3.269,0,0,0,65.787-3.485ZM77.7,0V-4.5a1.816,1.816,0,0,0-.387-1.27A1.577,1.577,0,0,0,76.1-6.189a2,2,0,0,0-1.6.59,2.98,2.98,0,0,0-.508,1.949V0H72.935V-6.957h.857L73.963-6h.051a2.152,2.152,0,0,1,.908-.8,2.949,2.949,0,0,1,1.3-.282,2.643,2.643,0,0,1,1.892.606,2.58,2.58,0,0,1,.635,1.939V0Z" transform="translate(425 306)" fill="#262626"/>
  </g>
</svg>
