<svg xmlns="http://www.w3.org/2000/svg" xmlns:xlink="http://www.w3.org/1999/xlink" width="1024" height="371" viewBox="0 0 1024 371">
  <defs>
    <linearGradient id="linear-gradient" y1="1" x2="1" y2="1" gradientUnits="objectBoundingBox">
      <stop offset="0" stop-color="#ababab" stop-opacity="0"/>
      <stop offset="0.512" stop-color="gray"/>
      <stop offset="1" stop-color="#fff" stop-opacity="0"/>
    </linearGradient>
    <linearGradient id="linear-gradient-7" y1="1" x2="1" y2="1" gradientUnits="objectBoundingBox">
      <stop offset="0" stop-color="#fff" stop-opacity="0"/>
      <stop offset="0.512" stop-color="gray"/>
      <stop offset="1" stop-color="#fff" stop-opacity="0"/>
    </linearGradient>
    <filter id="Rectangle_115" x="428" y="44" width="185" height="205" filterUnits="userSpaceOnUse">
      <feOffset dy="3" input="SourceAlpha"/>
      <feGaussianBlur stdDeviation="3" result="blur"/>
      <feFlood flood-opacity="0.161"/>
      <feComposite operator="in" in2="blur"/>
      <feComposite in="SourceGraphic"/>
    </filter>
    <linearGradient id="linear-gradient-11" x1="0.5" x2="0.5" y2="1" gradientUnits="objectBoundingBox">
      <stop offset="0" stop-color="#ff7c66"/>
      <stop offset="1" stop-color="#263c46"/>
    </linearGradient>
    <linearGradient id="linear-gradient-12" x1="0.5" x2="0.5" y2="1.292" gradientUnits="objectBoundingBox">
      <stop offset="0" stop-color="#34b0e8"/>
      <stop offset="1" stop-color="#263c46"/>
    </linearGradient>
  </defs>
  <g id="her-image-2" transform="translate(-376 -100)">
    <g id="Group_287" data-name="Group 287">
      <rect id="Rectangle_27" data-name="Rectangle 27" width="1024" height="317" rx="16" transform="translate(376 100)" fill="none"/>
      <g id="Group_283" data-name="Group 283" transform="translate(0 9)">
        <path id="Path_122" data-name="Path 122" d="M3181.609,3767.578h-1024v-3h1024Z" transform="translate(-1781.609 -3450)" fill="url(#linear-gradient)"/>
        <path id="Path_122-2" data-name="Path 122" d="M3181.609,3767.578h-1024v-3h1024Z" transform="translate(-1781.609 -3482)" fill="url(#linear-gradient)"/>
        <path id="Path_122-3" data-name="Path 122" d="M3181.609,3767.578h-1024v-3h1024Z" transform="translate(-1781.609 -3514)" fill="url(#linear-gradient)"/>
        <path id="Path_122-4" data-name="Path 122" d="M3181.609,3767.578h-1024v-3h1024Z" transform="translate(-1781.609 -3546)" fill="url(#linear-gradient)"/>
        <path id="Path_122-5" data-name="Path 122" d="M3181.609,3767.578h-1024v-3h1024Z" transform="translate(-1781.609 -3578)" fill="url(#linear-gradient)"/>
        <path id="Path_122-6" data-name="Path 122" d="M3181.609,3767.578h-1024v-3h1024Z" transform="translate(-1781.609 -3610)" fill="url(#linear-gradient)"/>
      </g>
      <g id="Group_284" data-name="Group 284" transform="translate(5.148)" opacity="0.3">
        <path id="Path_122-7" data-name="Path 122" d="M2474.609,3767.578h-317v-3h317Z" transform="translate(4509.43 -2057.609) rotate(90)" fill="url(#linear-gradient-7)"/>
        <path id="Path_122-8" data-name="Path 122" d="M2474.609,3767.578h-317v-3h317Z" transform="translate(4602.43 -2057.609) rotate(90)" fill="url(#linear-gradient-7)"/>
        <path id="Path_122-9" data-name="Path 122" d="M2474.609,3767.578h-317v-3h317Z" transform="translate(4695.43 -2057.609) rotate(90)" fill="url(#linear-gradient-7)"/>
        <path id="Path_122-10" data-name="Path 122" d="M2474.609,3767.578h-317v-3h317Z" transform="translate(4788.43 -2057.609) rotate(90)" fill="url(#linear-gradient-7)"/>
      </g>
      <g id="Group_282" data-name="Group 282" transform="translate(-24 -42.457)">
        <g id="Group_276" data-name="Group 276" transform="translate(837.343 192.4)">
          <g transform="matrix(1, 0, 0, 1, -437.34, -49.94)" filter="url(#Rectangle_115)">
            <g id="Rectangle_115-2" data-name="Rectangle 115" transform="translate(437 50)" fill="#fff" stroke="#ccc" stroke-width="1">
              <rect width="167" height="187" rx="9" stroke="none"/>
              <rect x="0.5" y="0.5" width="166" height="186" rx="8.5" fill="none"/>
            </g>
          </g>
          <rect id="Rectangle_116" data-name="Rectangle 116" width="20" height="187" transform="translate(44.657 0.057)" fill="#9274f4" opacity="0.3"/>
          <rect id="Rectangle_117" data-name="Rectangle 117" width="21" height="187" transform="translate(100.657 0.057)" fill="#9274f4" opacity="0.3"/>
        </g>
        <g id="Group_277" data-name="Group 277" transform="translate(771 170)">
          <ellipse id="Ellipse_20" data-name="Ellipse 20" cx="42" cy="41.5" rx="42" ry="41.5" transform="translate(0 0.457)" fill="url(#linear-gradient-11)"/>
          <path id="Path_118" data-name="Path 118" d="M12.1-.933,16.417-12.58,20.706-.933ZM22.8,4.757l2.045,5.534h7.824L20.729-19.893H12.06L.146,10.291H7.97l2.045-5.534Zm34.118,5.534V-11.046H50.135L49.912-8.8a7.84,7.84,0,0,0-6.29-2.689c-5.69,0-9.869,4.757-9.869,11.136s4.179,11.091,9.869,11.091a7.773,7.773,0,0,0,6.29-2.689l.222,2.245ZM45.289-5.267a4.57,4.57,0,0,1,4.6,4.912c0,2.889-1.889,4.912-4.6,4.912s-4.6-2.023-4.6-4.912S42.578-5.267,45.289-5.267Z" transform="translate(13.966 45.93)" fill="#fff"/>
        </g>
        <g id="Group_279" data-name="Group 279" transform="translate(979.857 352.686)">
          <circle id="Ellipse_22" data-name="Ellipse 22" cx="24.5" cy="24.5" r="24.5" transform="translate(0.143 -0.229)" opacity="0.8" fill="url(#linear-gradient-12)"/>
          <g id="Layer_2" data-name="Layer 2" transform="translate(12.286 12.286)">
            <g id="invisible_box" data-name="invisible box" transform="translate(0 0)">
              <rect id="Rectangle_119" data-name="Rectangle 119" width="25" height="24" transform="translate(-0.143 0.486)" fill="none"/>
            </g>
            <g id="Layer_6" data-name="Layer 6" transform="translate(1.865 0.179)">
              <g id="Group_278" data-name="Group 278">
                <path id="Path_120" data-name="Path 120" d="M11.163,2.321A.964.964,0,0,0,10.414,2a1.071,1.071,0,0,0-.749.321,1.017,1.017,0,0,0,0,1.5l3.052,3L5.649,13.831a2.088,2.088,0,0,0,0,3l7.067,7.013a2.034,2.034,0,0,0,1.5.642,2.088,2.088,0,0,0,1.5-.642L24.28,15.33ZM7.2,15.33l7.013-6.96,6.96,6.96Z" transform="translate(-5.015 -1.999)" fill="#fff"/>
                <path id="Path_121" data-name="Path 121" d="M39.141,32S37,35.105,37,36.283a2.141,2.141,0,0,0,4.283,0C41.283,35.105,39.141,32,39.141,32Z" transform="translate(-19.877 -15.939)" fill="#fff"/>
              </g>
            </g>
          </g>
        </g>
        <g id="Group_281" data-name="Group 281" transform="translate(837.343 394.829)">
          <rect id="Rectangle_120" data-name="Rectangle 120" width="38" height="38" rx="19" transform="translate(-0.343 -0.371)" fill="#033d58"/>
          <rect id="Rectangle_121" data-name="Rectangle 121" width="40" height="38" rx="19" transform="translate(29.657 -0.371)" fill="#4b778b"/>
          <rect id="Rectangle_122" data-name="Rectangle 122" width="38" height="38" rx="19" transform="translate(61.657 -0.371)" fill="#76a8bf"/>
          <rect id="Rectangle_123" data-name="Rectangle 123" width="38" height="38" rx="19" transform="translate(90.657 -0.371)" fill="#b2d5e5"/>
        </g>
      </g>
    </g>
    <g id="Group_291" data-name="Group 291" transform="translate(0 1)">
      <g id="Group_290" data-name="Group 290">
        <line id="Line_31" data-name="Line 31" x2="43" transform="translate(814.5 242.5)" fill="none" stroke="#b250e6" stroke-width="1"/>
        <line id="Line_32" data-name="Line 32" y2="8" transform="translate(814.5 238.5)" fill="none" stroke="#b250e6" stroke-width="1"/>
        <line id="Line_33" data-name="Line 33" y2="8" transform="translate(857.5 238.5)" fill="none" stroke="#b250e6" stroke-width="1"/>
      </g>
      <rect id="Rectangle_136" data-name="Rectangle 136" width="13" height="8" transform="translate(829 239)" fill="#fff"/>
      <text id="_32" data-name="32" transform="translate(832 245)" fill="#262626" font-size="6" font-family="Fieldwork-Geo-Regular, Fieldwork"><tspan x="0" y="0">32</tspan></text>
    </g>
    <g id="Group_292" data-name="Group 292" transform="translate(121 1)">
      <g id="Group_290-2" data-name="Group 290">
        <line id="Line_31-2" data-name="Line 31" x2="43" transform="translate(814.5 242.5)" fill="none" stroke="#b250e6" stroke-width="1"/>
        <line id="Line_32-2" data-name="Line 32" y2="8" transform="translate(814.5 238.5)" fill="none" stroke="#b250e6" stroke-width="1"/>
        <line id="Line_33-2" data-name="Line 33" y2="8" transform="translate(857.5 238.5)" fill="none" stroke="#b250e6" stroke-width="1"/>
      </g>
      <rect id="Rectangle_136-2" data-name="Rectangle 136" width="13" height="8" transform="translate(829 239)" fill="#fff"/>
      <text id="_32-2" data-name="32" transform="translate(832 245)" fill="#262626" font-size="6" font-family="Fieldwork-Geo-Regular, Fieldwork"><tspan x="0" y="0">32</tspan></text>
    </g>
    <rect id="Rectangle_167" data-name="Rectangle 167" width="121" height="52" transform="translate(828 419)" fill="none"/>
  </g>
</svg>
